<svg width="24" height="24" viewBox="0 0 24 24" fill="none" xmlns="http://www.w3.org/2000/svg" preserveAspectRatio="xMinYMid meet"><defs><style>.cls-1{fill:#212529;stroke-width:0}</style></defs><path id="path218" class="cls-1" d="M16.7 4.3h-.2s-.1 0-.2.1L10 13.5v.1l-.4 2.9c0 .1 0 .2.1.3H10l2.6-1.4 6.3-9.1v-.4l-2.1-1.5z"/><path id="path2" class="cls-1" d="M16.9 4.1h-.2-.2c-.1 0-.3 0-.4.2-2 2.9-4.2 6-6.3 9.1v.2c-.1 1-.3 1.9-.4 2.9v.3s.1.2.2.2h.7c.8-.5 1.7-.9 2.6-1.4 0 0 .1 0 .2-.2 2.2-3.1 4.3-6.2 6.3-9.1v-.2-.2-.2s0-.1-.2-.2c-.9-.6-1.6-1.1-2.1-1.5zm-.4.4c.5.4 1.2.9 2.1 1.5-2 2.9-4.2 6-6.3 9.1-.9.5-1.7.9-2.6 1.4.1-.9.3-1.9.4-2.9 2.2-3.2 4.3-6.2 6.3-9.1z"/><path id="path4" class="cls-1" d="M18.5 9.3h-.3s-.2 0-.3.2c0 0-.1.2-.2.3v9.7s0 .1-.1.2c0 0-.1 0-.2.1H5.5h-.2s-.1 0-.2-.1c0 0 0-.1-.1-.2V7.7v-.2s0-.1.1-.2c0 0 .1 0 .2-.1h7.3c.1 0 .2-.1.3-.2 0 0 .1-.2.2-.3v-.3-.3s-.1-.2-.2-.3c0 0-.2-.1-.3-.2H5.5c-.3 0-.6 0-.8.2-.3.1-.5.3-.7.5-.2.2-.4.4-.5.7-.1.3-.2.5-.2.8v11.6c0 .3 0 .6.2.8.1.3.3.5.5.7.2.2.4.4.7.5.3.1.5.2.8.2h11.6c.3 0 .6 0 .8-.2.3-.1.5-.3.7-.5s.4-.4.5-.7c.1-.3.2-.6.2-.8v-9.2-.3c0-.1-.1-.2-.2-.3 0 0-.2-.1-.3-.2h-.3zm0 1.1h-.1v-.1 9.6c0 .1-.1.2-.2.3 0 0-.2.2-.3.2H5.1c-.1 0-.2-.1-.3-.2 0 0-.2-.2-.2-.3V7.7v-.4c0-.1.1-.2.2-.3 0 0 .2-.2.3-.2H12.2v-.1-.1h.1-6.8c-.2 0-.4 0-.6.1-.2 0-.4.2-.5.3-.1.1-.3.3-.3.5s-.1.4-.1.6v11.6c0 .2 0 .4.1.6 0 .2.2.4.3.5.1.1.3.3.5.3s.4.1.6.1h11.6c.2 0 .4 0 .6-.1.2 0 .4-.2.5-.3.1-.1.3-.3.3-.5s.1-.4.1-.6v-9.2.1h-.1z"/><path id="path224" class="cls-1" d="M20.1 4.3l-2.2-1.5h-.4v.4l2.2 1.5h.2s.2 0 .2-.1v-.4z"/><path id="path6" class="cls-1" d="M20.3 4c-.5-.3-1.3-.8-2.2-1.5 0 0-.2 0-.3-.1h-.3s-.2 0-.2.1l-.2.2s0 .2-.1.3v.3s0 .2.1.2l.2.2c.4.3.8.5 1.1.7.3.2.7.5 1.1.7.1 0 .2.1.4.1h.3c.1 0 .2-.1.3-.2 0 0 0-.2.1-.3v-.3s0-.2-.1-.2c0 0-.1-.2-.2-.2zm-.4.7c-.4-.3-.8-.5-1.1-.7-.3-.2-.7-.5-1.1-.7.9.6 1.7 1.2 2.2 1.5z"/></svg>